<svg width="306" height="306" viewBox="0 0 306 306" fill="none" xmlns="http://www.w3.org/2000/svg">
<g filter="url(#filter0_d_0_687)">
<circle cx="153" cy="150" r="150" fill="#5F37A8"/>
</g>
<ellipse cx="153" cy="143.35" rx="150" ry="143.35" fill="#834EE3"/>
<ellipse cx="153" cy="143.35" rx="150" ry="143.35" fill="url(#paint0_linear_0_687)"/>
<ellipse cx="153" cy="146.306" rx="115.152" ry="112.315" fill="#BABFD4"/>
<ellipse cx="153" cy="152.217" rx="115.152" ry="106.404" fill="url(#paint1_linear_0_687)"/>
<path d="M190.207 95.4653C196.887 91.4117 203.291 90.5332 208.237 92.9937C219.323 98.508 217.718 119.031 213.182 127.924C210.621 132.944 206.081 136.613 199.676 138.843C197.195 146.544 193.708 153.161 189.259 158.634C192.174 161.025 195.885 162.36 199.769 162.36H199.954L206.205 156.314C207.779 154.793 210.329 154.792 211.902 156.314C213.476 157.836 213.476 160.303 211.902 161.825L211.35 162.36H212.607C214.832 162.36 216.636 164.105 216.636 166.256C216.636 168.408 214.832 170.153 212.607 170.153H211.35L211.903 170.688C213.476 172.21 213.476 174.677 211.903 176.199C211.117 176.96 210.085 177.34 209.055 177.34C208.023 177.34 206.992 176.96 206.205 176.199L199.954 170.153H199.769C193.842 170.153 188.187 168.072 183.788 164.359C182.928 165.123 182.043 165.858 181.13 166.557C173.409 172.473 163.97 175.915 152.938 176.857C154.327 180.96 154.597 185.402 153.646 189.735L153.606 189.916L158.416 197.337C159.627 199.205 159.081 201.693 157.197 202.893C156.519 203.325 155.759 203.531 155.009 203.531C153.675 203.531 152.368 202.879 151.594 201.683L151.168 201.027L150.898 202.253C150.485 204.135 148.806 205.419 146.94 205.419C146.655 205.419 146.365 205.389 146.074 205.327C143.886 204.855 142.498 202.713 142.974 200.543L143.243 199.317L142.581 199.739C140.697 200.939 138.188 200.398 136.978 198.53C135.767 196.662 136.312 194.175 138.196 192.974L145.682 188.206L145.722 188.025C146.542 184.286 146.001 180.428 144.247 177.09C141.052 177.002 137.743 176.733 134.323 176.279C124.631 174.993 119.134 179.182 117.68 180.497C106.264 190.819 104.054 209.062 104.032 209.246C103.841 210.913 102.614 212.288 100.958 212.691C100.633 212.77 100.304 212.808 99.9795 212.808C98.6499 212.808 97.377 212.166 96.6064 211.05C96.4245 210.787 92.128 204.495 90.2432 195.615C87.6837 183.555 90.7351 172.492 99.0684 163.622C103.901 158.477 110.072 154.568 116.914 152.316C117.005 152.286 117.097 152.257 117.188 152.227C116.894 152.3 116.6 152.376 116.307 152.454C114.15 151.47 111.771 150.941 109.323 150.941H109.137L102.863 156.987C102.074 157.748 101.039 158.128 100.004 158.128C98.9692 158.128 97.9342 157.748 97.1445 156.987C95.5658 155.465 95.5661 152.998 97.1445 151.476L97.7002 150.94H96.4375C94.2045 150.94 92.3946 149.196 92.3945 147.044C92.3945 144.892 94.2045 143.148 96.4375 143.148H97.7002L97.1445 142.613C95.5659 141.091 95.5661 138.624 97.1445 137.102C98.7236 135.581 101.284 135.581 102.863 137.102L109.137 143.147H109.323C115.937 143.147 122.216 145.719 126.797 150.249C130.45 149.891 134.176 149.951 137.867 150.441C148.098 151.798 156.466 150.4 162.926 146.279C159.33 141.934 157.322 136.43 157.322 130.67V130.485L151.138 124.231C149.581 122.657 149.581 120.104 151.138 118.53C152.694 116.956 155.219 116.956 156.775 118.53L157.322 119.083V117.825C157.322 115.598 159.107 113.794 161.309 113.793C163.51 113.793 165.295 115.598 165.295 117.825V119.083L165.843 118.53C167.4 116.956 169.924 116.956 171.48 118.53C173.852 120.928 172.141 123.562 171.48 124.231C170.819 124.899 165.296 130.486 165.296 130.486V130.671C165.296 134.478 166.609 138.116 168.962 141.005C171.881 137.585 174.176 133.285 175.839 128.111C174.623 124.818 172.733 117.018 177.552 108.172C180.075 103.54 184.925 98.6713 190.207 95.4653Z" fill="#3B4262"/>
<defs>
<filter id="filter0_d_0_687" x="0" y="0" width="306" height="306" filterUnits="userSpaceOnUse" color-interpolation-filters="sRGB">
<feFlood flood-opacity="0" result="BackgroundImageFix"/>
<feColorMatrix in="SourceAlpha" type="matrix" values="0 0 0 0 0 0 0 0 0 0 0 0 0 0 0 0 0 0 127 0" result="hardAlpha"/>
<feOffset dy="3"/>
<feGaussianBlur stdDeviation="1.5"/>
<feColorMatrix type="matrix" values="0 0 0 0 0 0 0 0 0 0 0 0 0 0 0 0 0 0 0.196706 0"/>
<feBlend mode="normal" in2="BackgroundImageFix" result="effect1_dropShadow_0_687"/>
<feBlend mode="normal" in="SourceGraphic" in2="effect1_dropShadow_0_687" result="shape"/>
</filter>
<linearGradient id="paint0_linear_0_687" x1="3" y1="0" x2="3" y2="286.7" gradientUnits="userSpaceOnUse">
<stop stop-color="white" stop-opacity="0.0966455"/>
<stop offset="1" stop-color="white" stop-opacity="0.01"/>
</linearGradient>
<linearGradient id="paint1_linear_0_687" x1="266.243" y1="258.621" x2="266.243" y2="49.3408" gradientUnits="userSpaceOnUse">
<stop stop-color="#F3F3F3"/>
<stop offset="1" stop-color="#DADADA"/>
</linearGradient>
</defs>
</svg>
